<svg width="45" height="43" viewBox="0 0 45 43" fill="none" xmlns="http://www.w3.org/2000/svg">
<path fillRule="evenodd" clipRule="evenodd" d="M35.4571 27.4805C35.2952 27.8516 35.9172 27.4159 35.1909 27.7201L34.7175 27.3398C34.4788 27.1037 34.5087 27.1211 34.3412 26.871L33.6621 27.5504C34.1378 27.4983 34.0808 27.4659 34.5109 27.3804C34.5364 28.1881 34.5913 27.4959 35.0203 28.2295C34.2807 28.7011 35.0161 28.8284 34.1047 28.8918C34.6867 30.002 39.2857 31.87 40.7802 32.1315C41.0575 32.3832 41.1058 31.7655 40.9932 32.4446C39.8543 33.0147 39.3514 33.6686 37.3844 34.3296C36.0773 34.7689 34.4774 35.1934 32.9836 35.1834C31.4019 34.571 27.5541 24.7455 24.678 22.1054L23.1212 20.5136C22.6344 20.4403 22.6913 20.3349 22.1585 20.0413C21.0082 19.4075 19.6301 19.1967 18.3982 19.6024C16.6383 20.1822 16.2912 20.8917 15.5364 22.5248C14.4359 30.1598 21.6183 36.5628 29.3252 37.333C28.8259 38.7511 14.6304 43.3658 6.57286 34.6059C5.14205 33.0503 3.5337 30.8673 2.90238 28.0937C2.28267 26.8246 1.71255 20.8854 2.67885 19.843C2.63664 18.7279 3.00624 16.6479 3.6878 15.8853C3.70076 14.3643 5.28096 11.8245 5.46095 9.87714C5.69075 7.39205 4.44328 5.62111 3.74541 3.69186C5.60119 3.94645 8.47039 4.63161 10.3996 4.31181C11.0022 4.21199 11.4613 3.90002 12.0194 3.69389C14.1833 2.89486 17.999 2.22846 20.0845 3.42724C22.1002 3.87767 24.3649 5.96972 25.3013 7.3802C26.7682 9.59061 27.0592 11.7501 27.0516 14.8174C27.0369 20.6637 29.4387 25.0711 32.4417 27.6558C33.1938 27.5066 33.6902 27.1604 34.0015 26.5325C34.3709 26.5302 34.0183 26.5892 34.1031 26.1559C28.8085 20.8519 29.6843 18.5636 29.2223 12.6559C28.5409 3.94556 21.3278 -0.611023 13.7036 0.958237C10.1125 1.69742 11.1411 2.7086 6.16753 1.89393C4.92632 1.69049 3.6648 1.39482 2.57456 0.909103C2.0913 0.693824 1.48431 0.291627 0.906363 0.357283C-1.74934 0.659433 2.1824 4.34127 3.13731 8.13501C3.89816 11.1583 0.127647 15.7732 0.0318431 23.1358C-0.0429687 28.8816 2.44369 33.5668 5.22133 36.4679C10.1591 41.6255 18.9771 43.2818 26.3296 41.1047C30.4927 39.8722 31.9264 38.3719 32.6442 38.1383C33.9021 38.9249 34.1402 39.4865 36.3567 40.6346C37.1803 41.0611 40.068 42.3041 41.0982 42.1159C41.815 41.9848 42.3621 40.9734 41.6623 40.2822C41.1893 39.815 36.8652 39.1631 35.1981 37.2288C36.1266 36.7951 37.7376 36.8462 40.3491 35.4214C41.993 34.5246 43.2896 33.4513 44.073 32.1862C45.513 29.861 41.464 30.6091 37.758 28.721C37.0226 28.3463 36.1566 27.5716 35.4571 27.4805ZM2.90238 28.0937C3.5337 30.8673 5.14205 33.0503 6.57286 34.6059C14.6304 43.3658 28.8259 38.7511 29.3252 37.333C21.6183 36.5628 14.4359 30.1598 15.5364 22.5248C14.8276 22.1849 14.839 22.19 14.157 22.9C13.5665 23.5145 13.2612 23.6365 12.6096 23.651C12.0902 22.8021 12.1167 23.1128 11.5705 23.4502C10.1502 24.3279 10.9557 23.9712 10.7657 24.5184C9.92018 24.3663 9.658 24.5291 8.5347 24.5543C8.30335 24.9967 8.71002 25.4279 7.74863 25.9179L6.54248 26.7495C5.67957 27.8576 5.12887 26.9793 4.00781 27.6136L3.47073 28.0946C3.44215 28.1285 3.44393 28.5895 3.31508 28.3061C3.30235 28.2777 3.26907 28.384 3.27823 28.3717L2.90238 28.0937ZM2.67885 19.843C1.71255 20.8854 2.28267 26.8246 2.90238 28.0937L3.27823 28.3717C3.26907 28.384 3.30235 28.2777 3.31508 28.3061C3.44393 28.5895 3.44215 28.1285 3.47073 28.0946L4.00781 27.6136C5.12887 26.9793 5.67957 27.8576 6.54248 26.7495L7.74863 25.9179C8.71002 25.4279 8.30335 24.9967 8.5347 24.5543C9.658 24.5291 9.92018 24.3663 10.7657 24.5184C10.9557 23.9712 10.1502 24.3279 11.5705 23.4502C12.1167 23.1128 12.0902 22.8021 12.6096 23.651C13.2612 23.6365 13.5665 23.5145 14.157 22.9C14.839 22.19 14.8276 22.1849 15.5364 22.5248C16.2912 20.8917 16.6383 20.1822 18.3982 19.6024C19.6301 19.1967 21.0082 19.4075 22.1585 20.0413C22.6913 20.3349 22.6344 20.4403 23.1212 20.5136C24.0424 20.4899 23.6523 20.6503 24.3571 20.5294C25.0936 20.403 25.4317 20.0154 25.3743 20.6239C25.5098 19.2156 25.0353 18.1627 25.5538 17.5363L25.0357 10.485L24.1911 11.7255C24.1719 11.6932 24.1186 11.8028 24.0799 11.839C23.7052 11.5154 22.7722 11.378 22.1886 11.6858C22.1563 11.703 22.1194 11.7356 22.0868 11.7537C22.0529 11.7724 22.016 11.8053 21.981 11.8238L21.0557 12.063L20.7592 13.0239C20.0562 12.8998 20.1504 12.7877 19.6106 13.0166C18.5349 13.4728 18.6392 13.8786 16.8991 14.4188C16.4255 14.5657 16.1119 14.7209 15.7758 14.9871C16.0847 14.8737 16.1919 15.243 16.2493 15.4007C15.9024 15.551 15.624 15.6077 15.2394 15.7792C13.2014 16.6884 14.7863 17.0727 13.6286 17.3804C13.0292 17.5396 13.1415 17.3094 12.4823 17.5939C11.0278 18.2214 11.6833 17.6752 9.94474 18.6042C10.0481 19.0419 10.0703 18.9734 10.0781 19.5806C9.19507 19.5928 9.05616 19.5895 8.36141 19.7641C7.23187 20.048 7.50454 19.7824 7.00654 19.6339C6.72896 19.9564 6.63449 19.6817 6.18205 20.6143C5.29123 20.4312 5.81558 20.3195 4.45981 20.324C3.72241 21.6099 3.83474 21.2688 2.99439 22.0259L2.71904 22.3225C2.64289 21.6009 2.4888 21.9283 2.54106 21.0989C2.58572 20.3892 2.80547 20.5495 2.67885 19.843ZM3.6878 15.8853L3.92988 17.0155C4.84638 16.9474 6.74503 16.9253 7.60213 16.5577C7.96614 16.4018 8.26762 16.3107 8.59344 16.2277C8.33306 16.3007 8.42751 16.2957 8.10191 16.2247C8.06127 16.2158 7.83103 16.1256 7.80333 16.1138L7.62022 16.0057C7.86252 15.4733 7.92036 15.7551 8.46928 15.4963C7.65818 15.0258 8.13698 15.8042 7.82969 14.967C9.16089 14.8321 9.61267 14.6633 10.56 13.9554C11.4258 13.3087 12.0426 13.5605 13.2271 13.3551L12.2358 13.3287C13.0344 12.0074 13.6938 13.157 14.0958 11.9227L14.1376 11.7514C14.55 11.8191 14.8906 12.046 15.4174 11.5806C15.885 11.1675 15.2061 11.7546 15.5891 11.387L16.2352 10.9732C16.5099 10.8477 16.7292 10.7778 17.0181 10.6914L16.8549 10.0395C16.98 9.09708 16.3142 8.52337 17.3156 7.63902C18.1872 6.86924 19.0155 7.33397 19.8083 7.56466C20.3014 7.69954 20.1149 7.63033 20.3579 7.51644C20.0484 6.72991 19.7545 7.01128 20.0801 6.62829C20.2947 7.1015 20.275 7.24175 21.0962 7.13411C22.0877 7.00414 21.4767 7.11112 21.8968 6.45188L23.3562 6.67363C22.3966 5.2464 20.792 4.24949 19.2259 3.44152C19.3063 3.40311 19.2158 3.3723 19.5608 3.36426C19.7221 3.36046 19.9229 3.40089 20.0845 3.42724C17.999 2.22846 14.1833 2.89486 12.0194 3.69389C11.4613 3.90002 11.0022 4.21199 10.3996 4.31181C8.47039 4.63161 5.60119 3.94645 3.74541 3.69186C4.44328 5.62111 5.69075 7.39205 5.46095 9.87714C5.28096 11.8245 3.70076 14.3643 3.6878 15.8853ZM19.8083 7.56466C20.2 8.44922 20.721 9.46757 19.6794 10.3423C18.5912 11.2564 17.5921 10.5969 16.8549 10.0395L17.0181 10.6914C16.7292 10.7778 16.5099 10.8477 16.2352 10.9732L15.5891 11.387C15.2061 11.7546 15.885 11.1675 15.4174 11.5806C14.8906 12.046 14.55 11.8191 14.1376 11.7514L14.0958 11.9227C13.6938 13.157 13.0344 12.0074 12.2358 13.3287L13.2271 13.3551C12.0426 13.5605 11.4258 13.3087 10.56 13.9554C9.61267 14.6633 9.16089 14.8321 7.82969 14.967C8.13698 15.8042 7.65818 15.0258 8.46928 15.4963C7.92036 15.7551 7.86252 15.4733 7.62022 16.0057L7.80333 16.1138C7.83103 16.1256 8.06127 16.2158 8.10191 16.2247C8.42751 16.2957 8.33306 16.3007 8.59344 16.2277C8.26762 16.3107 7.96614 16.4018 7.60213 16.5577C6.74503 16.9253 4.84638 16.9474 3.92988 17.0155L3.6878 15.8853C3.00624 16.6479 2.63664 18.7279 2.67885 19.843C2.80547 20.5495 2.58572 20.3892 2.54106 21.0989C2.4888 21.9283 2.64289 21.6009 2.71904 22.3225L2.99439 22.0259C3.83474 21.2688 3.72241 21.6099 4.45981 20.324C5.81558 20.3195 5.29123 20.4312 6.18205 20.6143C6.63449 19.6817 6.72896 19.9564 7.00654 19.6339C7.50454 19.7824 7.23187 20.048 8.36141 19.7641C9.05616 19.5895 9.19507 19.5928 10.0781 19.5806C10.0703 18.9734 10.0481 19.0419 9.94474 18.6042C11.6833 17.6752 11.0278 18.2214 12.4823 17.5939C13.1415 17.3094 13.0292 17.5396 13.6286 17.3804C14.7863 17.0727 13.2014 16.6884 15.2394 15.7792C15.624 15.6077 15.9024 15.551 16.2493 15.4007C16.1919 15.243 16.0847 14.8737 15.7758 14.9871C16.1119 14.7209 16.4255 14.5657 16.8991 14.4188C18.6392 13.8786 18.5349 13.4728 19.6106 13.0166C20.1504 12.7877 20.0562 12.8998 20.7592 13.0239L21.0557 12.063L21.981 11.8238C22.016 11.8053 22.0529 11.7724 22.0868 11.7537C22.1194 11.7356 22.1563 11.703 22.1886 11.6858C22.7722 11.378 23.7052 11.5154 24.0799 11.839C24.1186 11.8028 24.1719 11.6932 24.1911 11.7255L25.0357 10.485C24.8198 9.0676 24.199 7.56512 23.3562 6.67363L21.8968 6.45188C21.4767 7.11112 22.0877 7.00414 21.0962 7.13411C20.275 7.24175 20.2947 7.1015 20.0801 6.62829C19.7545 7.01128 20.0484 6.72991 20.3579 7.51644C20.1149 7.63033 20.3014 7.69954 19.8083 7.56466ZM17.6526 23.3444C17.6303 23.3948 17.6064 23.4138 17.5999 23.5014C17.5934 23.5885 17.561 23.615 17.5537 23.6597C17.5465 23.7044 17.5262 23.7656 17.5197 23.8207L17.5557 24.6235C17.9668 27.3174 19.2779 29.6051 21.1536 31.4017C22.92 33.0936 26.0708 34.8187 29.3989 35.1028C28.9516 34.3705 28.1419 34.0237 26.651 31.6791C25.2791 29.5218 23.4479 26.2134 21.8141 24.4599C21.058 23.6483 18.8121 21.9623 17.9065 23.8895C17.6068 23.6367 17.6705 24.3013 17.6526 23.3444ZM23.1212 20.5136L24.678 22.1054C27.5541 24.7455 31.4019 34.571 32.9836 35.1834C34.4774 35.1934 36.0773 34.7689 37.3844 34.3296C39.3514 33.6686 39.8543 33.0147 40.9932 32.4446C41.1058 31.7655 41.0575 32.3832 40.7802 32.1315C40.5778 32.2852 40.7748 32.1999 40.4168 32.307L38.9197 32.3618C34.9346 31.983 31.0129 28.5126 28.6955 25.559C26.9094 23.2823 25.7865 20.6266 25.5538 17.5363C25.0353 18.1627 25.5098 19.2156 25.3743 20.6239C25.4317 20.0154 25.0936 20.403 24.3571 20.5294C23.6523 20.6503 24.0424 20.4899 23.1212 20.5136ZM23.3562 6.67363C24.199 7.56512 24.8198 9.0676 25.0357 10.485L25.5538 17.5363C25.7865 20.6266 26.9094 23.2823 28.6955 25.559C31.0129 28.5126 34.9346 31.983 38.9197 32.3618L40.4168 32.307C40.7748 32.1999 40.5778 32.2852 40.7802 32.1315C39.2857 31.87 34.6867 30.002 34.1047 28.8918C33.4644 28.6303 32.9035 28.0671 32.4417 27.6558C29.4387 25.0711 27.0369 20.6637 27.0516 14.8174C27.0592 11.7501 26.7682 9.59061 25.3013 7.3802C24.3649 5.96972 22.1002 3.87767 20.0845 3.42724C19.9229 3.40089 19.7221 3.36046 19.5608 3.36426C19.2158 3.3723 19.3063 3.40311 19.2259 3.44152C20.792 4.24949 22.3966 5.2464 23.3562 6.67363ZM17.6526 23.3444C17.6705 24.3013 17.6068 23.6367 17.9065 23.8895C18.8121 21.9623 21.058 23.6483 21.8141 24.4599C23.4479 26.2134 25.2791 29.5218 26.651 31.6791C28.1419 34.0237 28.9516 34.3705 29.3989 35.1028L30.0153 35.1751L27.5445 30.7918C26.8205 29.2902 25.904 27.5367 25.0741 26.2841C24.1695 24.9197 23.0937 23.3888 21.9044 22.5042C20.4269 21.4051 18.1414 21.071 17.6526 23.3444ZM16.8549 10.0395C17.5921 10.5969 18.5912 11.2564 19.6794 10.3423C20.721 9.46757 20.2 8.44922 19.8083 7.56466C19.0155 7.33397 18.1872 6.86924 17.3156 7.63902C16.3142 8.52337 16.98 9.09708 16.8549 10.0395ZM32.4417 27.6558C32.9035 28.0671 33.4644 28.6303 34.1047 28.8918C35.0161 28.8284 34.2807 28.7011 35.0203 28.2295C34.5913 27.4959 34.5364 28.1881 34.5109 27.3804C34.0808 27.4659 34.1378 27.4983 33.6621 27.5504L34.3412 26.871C34.5087 27.1211 34.4788 27.1037 34.7175 27.3398L35.1909 27.7201C35.9172 27.4159 35.2952 27.8516 35.4571 27.4805C35.2371 27.0691 34.4292 26.4463 34.1031 26.1559C34.0183 26.5892 34.3709 26.5302 34.0015 26.5325C33.6902 27.1604 33.1938 27.5066 32.4417 27.6558Z" fill="url(#paint0_linear_34_2046)"/>
<circle cx="19.4972" cy="8.62222" r="1.77259" fill="white"/>
<defs>
<linearGradient id="paint0_linear_34_2046" x1="0" y1="0.350128" x2="36.0427" y2="45.8467" gradientUnits="userSpaceOnUse">
<stop stop-color="#6DDCE4"/>
<stop offset="1" stop-color="#7A81E9"/>
</linearGradient>
</defs>
</svg>
