<svg width="12" height="17" viewBox="0 0 12 17" fill="none" xmlns="http://www.w3.org/2000/svg">
<path d="M6 0.875C2.89852 0.875 0.375 3.28848 0.375 6.25391C0.375 7.66613 1.01871 9.54418 2.2882 11.836C3.30773 13.6761 4.48723 15.34 5.1007 16.168C5.20437 16.3094 5.33991 16.4245 5.49633 16.5038C5.65276 16.5831 5.82567 16.6244 6.00105 16.6244C6.17644 16.6244 6.34935 16.5831 6.50578 16.5038C6.6622 16.4245 6.79774 16.3094 6.90141 16.168C7.51383 15.34 8.69438 13.6761 9.71391 11.836C10.9813 9.54488 11.625 7.66684 11.625 6.25391C11.625 3.28848 9.10148 0.875 6 0.875ZM6 8.75C5.55499 8.75 5.11998 8.61804 4.74997 8.37081C4.37996 8.12357 4.09157 7.77217 3.92127 7.36104C3.75097 6.9499 3.70642 6.4975 3.79323 6.06105C3.88005 5.62459 4.09434 5.22368 4.40901 4.90901C4.72368 4.59434 5.12459 4.38005 5.56105 4.29323C5.9975 4.20642 6.4499 4.25097 6.86104 4.42127C7.27217 4.59157 7.62357 4.87996 7.87081 5.24997C8.11804 5.61998 8.25 6.05499 8.25 6.5C8.24935 7.09654 8.01209 7.66846 7.59027 8.09027C7.16846 8.51209 6.59654 8.74935 6 8.75Z" fill="#112211"/>
</svg>
